<svg width="171" height="22" viewBox="0 0 171 22" fill="none" xmlns="http://www.w3.org/2000/svg">
<path d="M15.24 21.12H11.496L3.336 12.048L12.12 4.32H14.52L6.48 11.376L15.24 21.12ZM2.784 21.12H0V4.32H2.784V21.12Z" fill="#740400"/>
<path d="M32.961 12.72C32.961 17.928 29.937 21.36 24.873 21.36C19.785 21.36 16.761 17.928 16.761 12.72C16.761 7.512 19.785 4.08 24.873 4.08C29.937 4.08 32.961 7.512 32.961 12.72ZM29.793 12.72C29.793 8.76 28.425 5.664 24.873 5.664C21.297 5.664 19.929 8.76 19.929 12.72C19.929 16.68 21.297 19.776 24.873 19.776C28.425 19.776 29.793 16.68 29.793 12.72Z" fill="#740400"/>
<path d="M51.6619 21.12H47.9179L39.7579 12.048L48.5419 4.32H50.9419L42.9019 11.376L51.6619 21.12ZM39.2059 21.12H36.4219V4.32H39.2059V21.12Z" fill="#740400"/>
<path d="M69.3829 12.72C69.3829 17.928 66.3589 21.36 61.2949 21.36C56.2069 21.36 53.1829 17.928 53.1829 12.72C53.1829 7.512 56.2069 4.08 61.2949 4.08C66.3589 4.08 69.3829 7.512 69.3829 12.72ZM66.2149 12.72C66.2149 8.76 64.8469 5.664 61.2949 5.664C57.7189 5.664 56.3509 8.76 56.3509 12.72C56.3509 16.68 57.7189 19.776 61.2949 19.776C64.8469 19.776 66.2149 16.68 66.2149 12.72ZM64.9189 0C63.8389 1.248 62.6389 2.352 61.2949 3.288H59.8549C60.9109 2.496 61.6309 1.32 61.8469 0H64.9189Z" fill="#740400"/>
<path d="M86.2357 8.352C84.6517 6.648 82.4198 5.664 80.0918 5.664C76.5157 5.664 75.1478 8.76 75.1478 12.72C75.1478 16.68 76.5157 19.776 80.0918 19.776C82.1077 19.776 84.0998 19.224 85.8518 18.192V19.776C84.0998 20.808 82.1077 21.36 80.0918 21.36C75.0038 21.36 71.9798 17.928 71.9798 12.72C71.9798 7.512 75.0038 4.08 80.0918 4.08C82.3717 4.08 84.5557 4.944 86.2357 6.504V8.352Z" fill="#740400"/>
<path d="M102.431 8.352C100.847 6.648 98.6151 5.664 96.2871 5.664C92.7111 5.664 91.3431 8.76 91.3431 12.72C91.3431 16.68 92.7111 19.776 96.2871 19.776C98.3031 19.776 100.295 19.224 102.047 18.192V19.776C100.295 20.808 98.3031 21.36 96.2871 21.36C91.1991 21.36 88.1751 17.928 88.1751 12.72C88.1751 7.512 91.1991 4.08 96.2871 4.08C98.5671 4.08 100.751 4.944 102.431 6.504V8.352Z" fill="#740400"/>
<path d="M120.522 4.344L120.474 21.144H118.89L118.914 7.944L107.346 21.096H105.234L105.282 4.296H106.866L106.818 17.496L118.41 4.344H120.522Z" fill="#740400"/>
<path d="M144.076 21.12H141.292L140.548 8.352L133.876 21.12H132.844L126.292 8.616L125.572 21.12H123.988L124.948 4.32H127.18L134.044 17.4L140.884 4.32H143.116L144.076 21.12Z" fill="#740400"/>
<path d="M162.875 12.72C162.875 17.928 159.851 21.36 154.787 21.36C149.699 21.36 146.675 17.928 146.675 12.72C146.675 7.512 149.699 4.08 154.787 4.08C159.851 4.08 162.875 7.512 162.875 12.72ZM159.707 12.72C159.707 8.76 158.339 5.664 154.787 5.664C151.211 5.664 149.843 8.76 149.843 12.72C149.843 16.68 151.211 19.776 154.787 19.776C158.339 19.776 159.707 16.68 159.707 12.72Z" fill="#740400"/>
<path d="M170.176 4.32L169.408 16.056H167.848L167.056 4.32H170.176ZM170.176 19.56C170.176 20.424 169.48 21.12 168.616 21.12C167.752 21.12 167.056 20.424 167.056 19.56C167.056 18.696 167.752 18 168.616 18C169.48 18 170.176 18.696 170.176 19.56Z" fill="#740400"/>
</svg>
