<svg width="32" height="32" viewBox="0 0 32 32" fill="none" xmlns="http://www.w3.org/2000/svg">
<rect width="32" height="32" rx="2" fill="#740400"/>
<path d="M12.25 16.6446L20.6797 24.0628C20.7773 24.1486 20.8954 24.2076 21.0226 24.234C21.1498 24.2605 21.2817 24.2534 21.4054 24.2135C21.529 24.1737 21.6402 24.1024 21.728 24.0066C21.8158 23.9108 21.8772 23.7939 21.9063 23.6673L25.4325 8.27983C25.463 8.14679 25.4566 8.00796 25.414 7.87828C25.3715 7.74861 25.2943 7.63302 25.1909 7.54396C25.0874 7.4549 24.9617 7.39576 24.8271 7.3729C24.6925 7.35004 24.5543 7.36433 24.4273 7.41424L7.12505 14.2115C6.97426 14.2708 6.8467 14.3773 6.76147 14.515C6.67624 14.6528 6.63791 14.8145 6.65223 14.9759C6.66654 15.1372 6.73273 15.2896 6.84088 15.4103C6.94903 15.5309 7.09334 15.6133 7.2522 15.645L12.25 16.6446Z" stroke="#FCF8F7" stroke-linecap="round" stroke-linejoin="round"/>
<path d="M12.25 16.6446L25.0105 7.42871" stroke="#FCF8F7" stroke-linecap="round" stroke-linejoin="round"/>
<path d="M16.46 20.3494L13.5303 23.2791C13.4254 23.384 13.2918 23.4554 13.1463 23.4843C13.0008 23.5133 12.85 23.4984 12.713 23.4416C12.5759 23.3849 12.4588 23.2888 12.3764 23.1654C12.294 23.0421 12.25 22.8971 12.25 22.7487V16.6445" stroke="#FCF8F7" stroke-linecap="round" stroke-linejoin="round"/>
</svg>
