<svg width="32" height="32" viewBox="0 0 32 32" fill="none" xmlns="http://www.w3.org/2000/svg">
<rect width="32" height="32" rx="2" fill="#740400"/>
<g clip-path="url(#clip0_227_2773)">
<path d="M25.6892 22.6462H23.3837C22.5652 22.6462 22.1435 22.1832 21.4459 21.416C21.1645 21.108 20.8198 20.7285 20.3606 20.2747C19.4402 19.3993 18.7546 18.9337 18.3852 18.9337C18.332 18.9337 18.2944 18.9355 18.2688 18.9373C18.2247 19.1326 18.2293 19.6688 18.2357 20.2793C18.2385 20.5717 18.2412 20.91 18.2412 21.3023C18.2412 22.417 17.3988 22.6462 16.1347 22.6462C13.4223 22.6462 10.654 21.0154 8.72808 18.2837C5.93958 14.4237 5 11.2942 5 10.46C5 9.75783 5.45467 9.35541 6.2485 9.35541H8.55483C9.51825 9.35541 9.81983 9.96866 10.027 10.5425C11.1545 13.7957 12.8091 16.0242 13.3545 16.3019C13.3655 16.2286 13.3756 16.1085 13.3756 15.9151V12.5582C13.3325 11.7763 13.0703 11.4555 12.8393 11.1713C12.6615 10.9541 12.4607 10.7084 12.4607 10.3353C12.4607 9.86324 12.8613 9.35449 13.5067 9.35449H17.1312C17.6372 9.35449 18.2394 9.57999 18.2394 10.6516V15.1643C18.2394 15.2386 18.2467 15.2936 18.2568 15.333C18.3732 15.2807 18.5547 15.1368 18.904 14.7922C20.4752 13.0569 21.6247 10.3106 21.6357 10.2831C21.8951 9.67441 22.3873 9.35449 23.062 9.35449H25.3674C25.8432 9.35449 26.1878 9.49383 26.3913 9.76791C26.5261 9.94849 26.6553 10.2712 26.5032 10.7827C26.5022 10.7854 26.5013 10.7882 26.5004 10.7918C26.1741 12.132 23.8182 15.5117 23.3407 16.1387L23.3425 16.1397C23.3012 16.2047 23.1931 16.3771 23.1922 16.4229C23.1922 16.4229 23.1977 16.4779 23.315 16.6264C23.3168 16.6292 23.3196 16.6328 23.3223 16.6356C23.3718 16.6952 23.5139 16.8363 23.711 17.0352C25.9568 19.293 27.3667 21.0035 26.9487 22.0082C26.8258 22.2997 26.5096 22.6462 25.6892 22.6462ZM18.3861 18.017C18.8472 18.017 19.5172 18.2077 21.0004 19.6166C21.4798 20.0905 21.8355 20.481 22.1252 20.7991C22.7962 21.5361 22.9877 21.7295 23.3856 21.7295H25.691C25.9724 21.7295 26.0861 21.6736 26.1035 21.6534C26.1686 21.5086 26.1484 20.7862 23.0611 17.6815C22.82 17.4386 22.6523 17.2635 22.5936 17.192C22.083 16.5421 22.2792 16.1103 22.5661 15.6529C22.5881 15.6162 22.6165 15.5842 22.6477 15.5557C23.0116 15.0433 25.3775 11.6452 25.6149 10.5544C25.6195 10.5333 25.6259 10.5122 25.6332 10.4921C25.6653 10.3738 25.6552 10.3197 25.6534 10.3097C25.6452 10.3097 25.5709 10.2712 25.3674 10.2712H23.062C22.7091 10.2712 22.5752 10.4178 22.4808 10.6378C22.4332 10.7524 21.2589 13.5556 19.5649 15.4256C18.9654 16.0196 18.6253 16.2762 18.1487 16.2762C17.738 16.2762 17.3227 15.894 17.3227 15.1643V10.6516C17.3227 10.3647 17.2732 10.2922 17.2696 10.2877C17.2677 10.2877 17.2311 10.2712 17.1312 10.2712H13.5057C13.4058 10.2712 13.3783 10.3234 13.3765 10.3372C13.3765 10.3812 13.4599 10.4838 13.5488 10.592C13.8202 10.9247 14.2308 11.428 14.2922 12.5326L14.2932 15.9142C14.2932 16.3459 14.2932 17.2433 13.4086 17.2433C12.1033 17.2433 10.0692 13.4621 9.16258 10.8487C8.96367 10.2987 8.85825 10.2721 8.55483 10.2721H6.2485C5.91667 10.2721 5.91667 10.3234 5.91667 10.46C5.91667 10.8276 6.573 13.7352 9.47425 17.7512C11.2315 20.2445 13.7212 21.7295 16.1357 21.7295C17.3255 21.7295 17.3255 21.5507 17.3255 21.3023C17.3255 20.9137 17.3227 20.5772 17.32 20.2876C17.3081 19.0446 17.3035 18.5789 17.6142 18.2654C17.8315 18.0472 18.1138 18.017 18.3861 18.017Z" fill="#FCF8F7"/>
</g>
<defs>
<clipPath id="clip0_227_2773">
<rect width="22" height="22" fill="white" transform="translate(5 5)"/>
</clipPath>
</defs>
</svg>
