<svg width="32" height="32" viewBox="0 0 32 32" fill="none" xmlns="http://www.w3.org/2000/svg">
<rect width="32" height="32" rx="2" fill="#740400"/>
<g clip-path="url(#clip0_227_2768)">
<path d="M16 5.45802C14.0883 5.45821 12.2125 5.97829 10.5736 6.9626C8.93468 7.9469 7.59428 9.35836 6.69589 11.0459C5.7975 12.7335 5.37494 14.6335 5.47343 16.5428C5.57192 18.452 6.18777 20.2985 7.25504 21.8847L5.45837 26.5414L10.2525 24.8272C11.6275 25.7247 13.1931 26.2886 14.8245 26.4739C16.4559 26.6593 18.1081 26.461 19.6493 25.8949C21.1906 25.3288 22.5783 24.4105 23.7018 23.2131C24.8254 22.0158 25.6537 20.5726 26.1208 18.9985C26.5879 17.4244 26.6808 15.763 26.3922 14.1466C26.1035 12.5303 25.4413 11.0037 24.4583 9.68851C23.4753 8.37335 22.1987 7.306 20.7302 6.57152C19.2617 5.83704 17.642 5.45574 16 5.45802Z" stroke="#FCF8F7" stroke-linecap="round" stroke-linejoin="round"/>
<path d="M13.7084 18.2913C14.9 19.483 17.5309 21.0413 18.75 21.0413C19.2848 21.0469 19.8051 20.8674 20.2227 20.5333C20.6404 20.1992 20.9297 19.731 21.0417 19.208V18.2913C21.0417 18.2913 19.9142 17.7413 19.2084 17.3747C18.5025 17.008 17.375 18.2913 17.375 18.2913C16.5172 18.0119 15.7337 17.5418 15.0834 16.9163C14.4579 16.266 13.9879 15.4826 13.7084 14.6247C13.7084 14.6247 14.9917 13.4972 14.625 12.7913C14.2584 12.0855 13.7084 10.958 13.7084 10.958H12.7917C12.2687 11.07 11.8006 11.3593 11.4665 11.777C11.1323 12.1946 10.9529 12.7149 10.9584 13.2497C10.9584 14.4688 12.5167 17.0997 13.7084 18.2913Z" stroke="#FCF8F7" stroke-linecap="round" stroke-linejoin="round"/>
</g>
<defs>
<clipPath id="clip0_227_2768">
<rect width="22" height="22" fill="white" transform="translate(5 5)"/>
</clipPath>
</defs>
</svg>
